HIERARCHY
ROOT Hips
{
	OFFSET 0.00000 0.00000 0.00000
	CHANNELS 6 Xposition Yposition Zposition Zrotation Yrotation Xrotation 
	JOINT LHipJoint
	{
		OFFSET 0 0 0
		CHANNELS 3 Zrotation Yrotation Xrotation
		JOINT LeftUpLeg
		{
			OFFSET 1.62964 -1.40469 0.78906
			CHANNELS 3 Zrotation Yrotation Xrotation
			JOINT LeftLeg
			{
				OFFSET 2.29640 -6.30932 0.00000
				CHANNELS 3 Zrotation Yrotation Xrotation
				JOINT LeftFoot
				{
					OFFSET 2.29451 -6.30412 0.00000
					CHANNELS 3 Zrotation Yrotation Xrotation
					JOINT LeftToeBase
					{
						OFFSET 0.03611 -0.09921 1.56387
						CHANNELS 3 Zrotation Yrotation Xrotation
						End Site
						{
							OFFSET 0.00000 -0.00000 0.80291
						}
					}
				}
			}
		}
	}
	JOINT RHipJoint
	{
		OFFSET 0 0 0
		CHANNELS 3 Zrotation Yrotation Xrotation
		JOINT RightUpLeg
		{
			OFFSET -1.73712 -1.40469 0.78906
			CHANNELS 3 Zrotation Yrotation Xrotation
			JOINT RightLeg
			{
				OFFSET -2.28137 -6.26801 0.00000
				CHANNELS 3 Zrotation Yrotation Xrotation
				JOINT RightFoot
				{
					OFFSET -2.28681 -6.28298 0.00000
					CHANNELS 3 Zrotation Yrotation Xrotation
					JOINT RightToeBase
					{
						OFFSET -0.15927 -0.43759 1.61103
						CHANNELS 3 Zrotation Yrotation Xrotation
						End Site
						{
							OFFSET -0.00000 -0.00000 0.84630
						}
					}
				}
			}
		}
	}
	JOINT LowerBack
	{
		OFFSET 0 0 0
		CHANNELS 3 Zrotation Yrotation Xrotation
		JOINT Spine
		{
			OFFSET -0.04227 2.04338 -0.00225
			CHANNELS 3 Zrotation Yrotation Xrotation
			JOINT Spine1
			{
				OFFSET -0.02148 2.04482 -0.04273
				CHANNELS 3 Zrotation Yrotation Xrotation
				JOINT Neck
				{
					OFFSET 0 0 0
					CHANNELS 3 Zrotation Yrotation Xrotation
					JOINT Neck1
					{
						OFFSET 0.09180 1.44629 0.19359
						CHANNELS 3 Zrotation Yrotation Xrotation
						JOINT Head
						{
							OFFSET 0.00887 1.40645 0.14750
							CHANNELS 3 Zrotation Yrotation Xrotation
							End Site
							{
								OFFSET -0.00669 1.50671 0.03707
							}
						}
					}
				}
				JOINT LeftShoulder
				{
					OFFSET 0 0 0
					CHANNELS 3 Zrotation Yrotation Xrotation
					JOINT LeftArm
					{
						OFFSET 2.17674 1.86763 -0.06520
						CHANNELS 3 Zrotation Yrotation Xrotation
						JOINT LeftForeArm
						{
							OFFSET 4.65776 -0.00000 0.00000
							CHANNELS 3 Zrotation Yrotation Xrotation
							JOINT LeftHand
							{
								OFFSET 3.55539 -0.00000 0.00000
								CHANNELS 3 Zrotation Yrotation Xrotation
								JOINT LeftFingerBase
								{
									OFFSET 0 0 0
									CHANNELS 3 Zrotation Yrotation Xrotation
									JOINT LeftHandIndex1
									{
										OFFSET 0.70726 -0.00000 0.00000
										CHANNELS 3 Zrotation Yrotation Xrotation
										End Site
										{
											OFFSET 0.57022 -0.00000 0.00000
										}
									}
								}
								JOINT LThumb
								{
									OFFSET 0 0 0
									CHANNELS 3 Zrotation Yrotation Xrotation
									End Site
									{
										OFFSET 0.57892 -0.00000 0.57892
									}
								}
							}
						}
					}
				}
				JOINT RightShoulder
				{
					OFFSET 0 0 0
					CHANNELS 3 Zrotation Yrotation Xrotation
					JOINT RightArm
					{
						OFFSET -2.80694 1.55459 -0.32496
						CHANNELS 3 Zrotation Yrotation Xrotation
						JOINT RightForeArm
						{
							OFFSET -4.71925 -0.00000 -0.00000
							CHANNELS 3 Zrotation Yrotation Xrotation
							JOINT RightHand
							{
								OFFSET -3.56990 -0.00000 0.00000
								CHANNELS 3 Zrotation Yrotation Xrotation
								JOINT RightFingerBase
								{
									OFFSET 0 0 0
									CHANNELS 3 Zrotation Yrotation Xrotation
									JOINT RightHandIndex1
									{
										OFFSET -0.50776 -0.00000 0.00000
										CHANNELS 3 Zrotation Yrotation Xrotation
										End Site
										{
											OFFSET -0.40937 -0.00000 0.00000
										}
									}
								}
								JOINT RThumb
								{
									OFFSET 0 0 0
									CHANNELS 3 Zrotation Yrotation Xrotation
									End Site
									{
										OFFSET -0.41562 -0.00000 0.41562
									}
								}
							}
						}
					}
				}
			}
		}
	}
}
MOTION
Frames: 14
Frame Time: .0083333
9.2752 12.5517 30.1887 -180.9690 0.3234 -122.8650 0.0000 0.0000 0.0000 5.6437 -22.2462 -98.2935 19.3607 19.9902 88.1304 3.7691 -10.4260 -35.2148 3.6929 -11.7401 -34.8186 0.0000 0.0000 0.0000 -4.4158 27.0289 -95.4288 -17.9163 -19.8956 83.8975 -7.4703 -1.3023 -52.6686 -4.2606 12.4994 -37.5223 -4.2424 -0.5800 -6.2342 -0.7289 -0.6901 -2.6669 1.5819 -0.3965 0.7790 1.6563 -1.5774 -1.8841 3.0984 -4.7105 -27.4878 1.2635 -4.1884 -8.1680 0.0000 -0.0000 0.0000 -74.7595 6.1497 27.3181 12.3902 -20.3873 -2.2364 -0.0000 -0.0000 5.3836 27.5052 -14.9528 -7.6518 -7.1250 0.0000 -0.0000 -0.0459 13.2226 0.0342 0.0000 -0.0000 0.0000 87.6147 -6.9688 2.8227 -9.6051 16.1195 -1.3633 0.0000 0.0000 18.4730 -16.3246 -48.6070 12.3922 7.1250 -0.0000 -0.0000 48.1906 -75.5041 -36.3206
9.2777 12.4693 30.1162 -181.0860 0.4368 -123.0840 0.0000 0.0000 0.0000 5.3599 -22.4270 -98.2113 19.7946 19.9990 89.3994 3.8237 -10.7899 -35.4711 3.6633 -11.6984 -34.6731 0.0000 0.0000 0.0000 -4.5934 27.3292 -94.8849 -18.0902 -19.9123 84.4083 -7.5665 -0.7146 -52.8779 -4.1613 12.3721 -37.0612 -4.3118 -0.5753 -5.9056 -0.8251 -0.6834 -2.5486 1.5249 -0.3895 0.7177 1.9140 -1.9535 -1.7626 3.0570 -5.2146 -27.4298 1.2375 -4.4385 -8.1758 -0.0000 -0.0000 0.0000 -75.4164 4.4710 26.7168 11.9338 -19.7053 -2.0799 -0.0000 -0.0000 6.1820 28.3341 -14.8936 -7.8904 -7.1250 0.0000 -0.0000 0.5163 13.1676 -0.3851 -0.0000 -0.0000 0.0000 87.8266 -5.3439 3.2999 -9.4482 15.8718 -1.3200 0.0000 0.0000 18.9271 -15.9928 -49.3220 12.2631 7.1250 -0.0000 -0.0000 50.8754 -75.7652 -38.7926
9.2828 12.3973 30.0383 -181.1710 0.4630 -123.4070 0.0000 0.0000 0.0000 5.1351 -22.6416 -97.8983 20.1455 19.9995 90.4255 3.8210 -11.1065 -35.4510 3.4924 -11.4524 -33.8212 0.0000 0.0000 0.0000 -4.4883 27.3723 -94.9375 -18.6392 -19.9555 86.0184 -7.6882 -0.5777 -53.2843 -4.2384 12.4710 -37.4192 -4.3205 -0.5824 -5.5384 -0.8875 -0.6927 -2.3789 1.4677 -0.3900 0.6887 2.0043 -2.2188 -1.9873 3.2437 -5.5674 -27.3247 1.2960 -4.6370 -8.0960 0.0000 0.0000 0.0000 -76.0259 2.8043 26.4313 11.6183 -19.2297 -1.9748 -0.0000 -0.0000 6.7737 28.6678 -14.4183 -7.7527 -7.1250 0.0000 -0.0000 0.7876 13.6495 -0.5795 0.0000 0.0000 0.0000 88.0975 -3.5654 3.8473 -9.3853 15.7724 -1.3029 0.0000 0.0000 19.4166 -16.2605 -50.6684 12.7134 7.1250 -0.0000 -0.0000 55.5722 -76.5277 -43.5305
9.2835 12.3356 29.9605 -181.0950 0.5684 -123.4210 0.0000 0.0000 0.0000 5.1525 -22.6968 -97.8700 20.4892 19.9943 91.4305 3.8032 -11.3539 -35.3607 3.3022 -11.1689 -32.8518 0.0000 0.0000 0.0000 -4.4233 27.7390 -94.6491 -18.9288 -19.9725 86.8667 -7.7706 -0.8573 -53.6425 -4.4609 12.7496 -38.4383 -4.2043 -0.5573 -5.5415 -0.9688 -0.6628 -2.3445 1.3206 -0.3770 0.7223 1.9000 -1.7611 -2.1136 3.4780 -4.9432 -27.6056 1.3643 -4.3892 -8.1640 0.0000 -0.0000 0.0000 -76.6503 1.0402 25.7397 11.2203 -18.6252 -1.8457 -0.0000 -0.0000 7.9067 29.6828 -14.9932 -8.3883 -7.1250 0.0000 -0.0000 1.4092 12.8505 -1.0608 0.0000 -0.0000 0.0000 88.4559 -1.6912 4.6849 -9.4075 15.8075 -1.3089 0.0000 0.0000 19.8946 -17.2284 -47.1553 12.8091 7.1250 -0.0000 -0.0000 42.8039 -74.9764 -31.5044
9.2818 12.2857 29.8706 -181.1020 0.6745 -123.6510 0.0000 0.0000 0.0000 5.0167 -22.9063 -97.4510 20.8083 19.9843 92.3639 3.8471 -11.7183 -35.5704 3.5045 -11.4701 -33.8823 0.0000 0.0000 0.0000 -4.1454 27.7875 -94.4057 -19.3012 -19.9883 87.9565 -7.8282 -0.9883 -53.8771 -4.6043 12.9238 -39.0840 -4.1083 -0.7366 -5.3935 -1.0578 -0.6187 -2.3296 1.1807 -0.2262 0.6601 1.9372 -1.3993 -2.2523 3.4176 -4.4527 -27.5750 1.3040 -4.1573 -8.1341 0.0000 0.0000 0.0000 -77.3248 -0.7134 24.9097 10.9781 -18.2547 -1.7691 -0.0000 -0.0000 8.7831 29.0225 -13.9988 -7.6441 -7.1250 0.0000 -0.0000 1.0684 14.0685 -0.7768 0.0000 0.0000 0.0000 88.7651 0.0280 5.6171 -9.4945 15.9449 -1.3327 0.0000 0.0000 19.9792 -17.8396 -46.5340 13.1473 7.1250 -0.0000 -0.0000 40.3773 -74.8019 -29.4502
9.2824 12.2485 29.7732 -181.1650 0.7166 -124.1280 0.0000 0.0000 0.0000 4.6456 -23.2326 -96.6386 21.0874 19.9716 93.1808 3.8806 -12.1634 -35.7318 3.9890 -12.1457 -36.2494 0.0000 0.0000 0.0000 -3.7673 27.8985 -93.4196 -19.4985 -19.9940 88.5337 -7.8590 -0.9249 -53.9719 -4.7571 13.1049 -39.7624 -4.1465 -0.7606 -4.9778 -1.0652 -0.6788 -2.2096 1.1941 -0.2608 0.5551 1.7154 -1.1186 -3.0606 3.5740 -4.1000 -27.2230 1.3419 -3.9907 -7.8643 -0.0000 0.0000 0.0000 -78.0523 -2.3889 24.7469 10.9965 -18.2830 -1.7748 -0.0000 -0.0000 8.7468 28.9088 -14.9016 -8.0826 -7.1250 0.0000 -0.0000 0.9009 13.0727 -0.6738 -0.0000 0.0000 0.0000 88.9124 1.7208 7.6422 -9.9601 16.6771 -1.4635 0.0000 0.0000 18.2315 -17.5940 -46.7148 12.9982 7.1250 -0.0000 -0.0000 41.1471 -74.8290 -30.0751
9.2811 12.2289 29.6629 -181.4490 0.7564 -125.0330 0.0000 0.0000 0.0000 3.8493 -23.8213 -95.0447 21.2182 19.9644 93.5639 3.8752 -12.5127 -35.7083 4.1982 -12.4196 -37.2329 0.0000 0.0000 0.0000 -3.1683 27.7161 -91.9616 -19.7771 -19.9988 89.3482 -7.8657 -1.3864 -54.1022 -5.1863 13.5905 -41.6214 -4.2538 -0.8748 -3.8011 -1.1318 -0.8972 -2.3681 1.1894 -0.3529 -0.2530 1.7047 -1.1072 -2.8627 3.5857 -3.9940 -26.9002 1.3311 -3.8929 -7.7877 -0.0000 -0.0000 0.0000 -78.5711 -3.1248 25.6258 11.3850 -18.8760 -1.8986 -0.0000 -0.0000 7.3484 26.8976 -12.0847 -6.0622 -7.1250 0.0000 -0.0000 -0.2206 16.4801 0.1490 -0.0000 -0.0000 0.0000 89.0881 2.7527 9.7260 -10.5028 17.5222 -1.6231 0.0000 0.0000 16.6346 -17.7043 -46.3331 13.0026 7.1250 -0.0000 -0.0000 39.9495 -74.6151 -28.9684
9.2804 12.2212 29.5502 -181.6910 0.7277 -125.8350 0.0000 0.0000 0.0000 3.3018 -24.3503 -93.4602 21.2391 19.9631 93.6251 3.8489 -12.7963 -35.5863 4.1531 -12.3614 -37.0229 0.0000 0.0000 0.0000 -2.6215 27.7535 -90.0480 -19.6809 -19.9976 89.0668 -7.7063 -1.7511 -53.6236 -5.4904 13.9156 -42.9004 -4.3455 -0.8330 -3.4169 -1.1473 -1.1097 -2.1142 1.2214 -0.5753 -0.2022 1.8181 -5.0091 -2.6525 5.0458 -2.8401 -26.9698 1.3374 -0.5226 -7.8451 -0.0000 -0.0000 0.0000 -78.9634 -4.5420 26.9254 11.9192 -19.6833 -2.0750 -0.0000 -0.0000 5.4743 30.0715 -13.9033 -7.9206 -7.1250 0.0000 -0.0000 1.7871 14.0230 -1.3015 -0.0000 -0.0000 0.0000 89.1771 4.3892 12.6648 -11.3496 18.8222 -1.8872 0.0000 0.0000 14.2068 -18.3352 -47.7143 13.7755 7.1250 -0.0000 -0.0000 43.4548 -75.7573 -32.6764
9.2815 12.2186 29.4402 -181.7130 0.6859 -126.2640 0.0000 0.0000 0.0000 3.1178 -24.6541 -92.3216 21.2869 19.9602 93.7650 3.8131 -13.1973 -35.4242 4.1576 -12.3672 -37.0437 0.0000 0.0000 0.0000 -2.3025 27.8612 -89.2467 -19.9078 -19.9998 89.7303 -7.6995 -1.3797 -53.5104 -5.4643 13.8883 -42.7917 -4.2310 -0.8941 -3.5055 -1.1835 -1.1795 -1.9661 1.1148 -0.6148 0.0008 1.8065 -5.0819 -2.5297 5.1675 -2.8884 -27.1485 1.3860 -0.5499 -7.9245 0.0000 0.0000 0.0000 -79.1091 -6.0161 28.7265 12.5575 -20.6354 -2.2950 -0.0000 -0.0000 3.4988 31.2255 -14.4206 -8.5854 -7.1250 0.0000 -0.0000 2.5056 13.2555 -1.8662 0.0000 0.0000 0.0000 89.3295 5.9429 15.2120 -12.3063 20.2623 -2.2072 0.0000 0.0000 11.4876 -18.6074 -47.1705 13.8698 7.1250 -0.0000 -0.0000 41.4798 -75.5172 -30.8939
9.2818 12.2282 29.3234 -181.7530 0.7903 -126.7020 0.0000 0.0000 0.0000 2.6934 -24.9220 -90.9806 21.2948 19.9598 93.7882 3.7721 -13.6245 -35.2418 4.1566 -12.3659 -37.0389 0.0000 0.0000 0.0000 -2.0399 28.0409 -88.0998 -19.9802 -20.0000 89.9422 -7.6646 -0.9752 -53.2908 -5.4774 13.9021 -42.8466 -4.1933 -0.8817 -3.2691 -1.3078 -1.1867 -2.0466 0.9711 -0.6173 -0.2172 1.9859 -5.2294 -2.7771 5.1701 -3.1460 -26.8105 1.3652 -0.7047 -7.7662 -0.0000 -0.0000 0.0000 -79.0096 -7.0972 31.1382 13.3768 -21.8368 -2.5918 -0.0000 -0.0000 1.8649 31.6154 -13.6607 -8.2718 -7.1250 0.0000 -0.0000 2.8557 14.0650 -2.0787 -0.0000 -0.0000 0.0000 89.5332 7.1365 17.6559 -13.5398 22.0730 -2.6527 0.0000 0.0000 8.1126 -17.2068 -47.7199 12.9050 7.1250 -0.0000 -0.0000 44.5473 -75.3224 -33.1914
9.2810 12.2487 29.1960 -181.7410 0.8192 -127.1720 0.0000 0.0000 0.0000 2.2620 -25.1403 -89.4862 21.2130 19.9647 93.5487 3.7224 -13.9345 -35.0159 4.0352 -12.2071 -36.4687 0.0000 0.0000 0.0000 -1.5673 28.1708 -86.8807 -20.1082 -19.9997 90.3164 -7.6465 -0.5747 -53.1340 -5.5664 13.9945 -43.2155 -4.1816 -0.8898 -3.2023 -1.2959 -1.2017 -2.0599 0.9776 -0.6237 -0.2674 2.1283 -5.2439 -2.9144 4.9254 -3.2183 -26.7367 1.2608 -0.7330 -7.7255 -0.0000 -0.0000 0.0000 -78.8748 -8.1072 33.4766 14.5594 -23.5288 -3.0479 -0.0000 0.0000 -0.2875 32.4013 -14.7160 -9.1584 -7.1250 0.0000 -0.0000 3.2546 12.7212 -2.4621 -0.0000 -0.0000 0.0000 89.4631 8.3319 20.0734 -15.0916 24.2736 -3.2635 0.0000 0.0000 4.9318 -17.6758 -47.1950 13.1595 7.1250 -0.0000 -0.0000 42.4828 -75.1734 -31.4125
9.2841 12.2758 29.0662 -181.5400 0.6412 -127.5770 0.0000 0.0000 0.0000 2.0718 -25.1637 -88.0929 21.1395 19.9688 93.3332 3.7114 -14.3062 -34.9824 3.9740 -12.1257 -36.1781 0.0000 0.0000 0.0000 -0.8442 28.5350 -85.5442 -20.1370 -19.9995 90.4007 -7.6197 -0.0123 -52.9117 -5.5283 13.9552 -43.0581 -3.9711 -0.9422 -3.3507 -1.1165 -1.2702 -2.1551 1.0403 -0.6568 -0.2789 2.1291 -5.2238 -2.5637 4.7106 -3.2213 -26.9656 1.1987 -0.7282 -7.8689 -0.0000 0.0000 0.0000 -78.6883 -8.9702 35.2750 16.0214 -25.5496 -3.6552 -0.0000 0.0000 -0.9255 30.4273 -13.9187 -8.0416 -7.1250 0.0000 -0.0000 2.0256 13.9522 -1.4784 -0.0000 0.0000 0.0000 89.0893 9.2222 22.6214 -16.8829 26.7032 -4.0346 0.0000 0.0000 2.2862 -16.4505 -46.9066 12.1679 7.1250 -0.0000 -0.0000 42.8397 -74.5208 -31.1519
9.2871 12.3277 28.9175 -181.6490 0.9357 -128.2980 0.0000 0.0000 0.0000 0.9246 -25.2452 -85.7939 20.8984 19.9806 92.6276 3.7300 -14.7054 -35.0961 4.0258 -12.1947 -36.4243 0.0000 0.0000 0.0000 -0.6455 28.9171 -83.9705 -20.1523 -19.9994 90.4454 -7.6062 0.9767 -52.6523 -5.1744 13.5776 -41.5708 -4.1449 -1.1102 -3.0522 -1.2386 -1.2590 -2.2160 1.0173 -0.5367 -0.5010 2.2858 -5.2329 -2.8647 4.7273 -3.2126 -26.8411 1.1703 -0.7314 -7.7792 0.0000 -0.0000 0.0000 -78.0498 -9.9145 37.3803 17.5411 -27.5655 -4.3348 -0.0000 0.0000 -2.2367 31.1078 -16.2408 -9.5791 -7.1250 0.0000 -0.0000 2.2084 11.2010 -1.7387 0.0000 -0.0000 0.0000 88.7809 9.9352 25.1135 -19.0574 29.4899 -5.0591 0.0000 -0.0000 -0.2325 -19.0485 -45.8311 13.9101 7.1250 -0.0000 -0.0000 37.1295 -74.7755 -26.9111
9.2904 12.3842 28.7734 -181.5500 0.9412 -128.6680 0.0000 0.0000 0.0000 0.3482 -25.1651 -83.9497 20.6840 19.9888 92.0001 3.7265 -14.9413 -35.0956 4.0031 -12.1645 -36.3164 0.0000 0.0000 0.0000 0.6260 28.4088 -82.3933 -20.0356 -20.0000 90.1041 -7.5242 1.1506 -52.3181 -5.0773 13.4703 -41.1555 -3.9310 -1.1102 -3.4987 -1.2904 -1.2342 -2.2386 0.8380 -0.5274 -0.2808 2.2288 -5.1594 -2.7718 4.8999 -3.0244 -27.0016 1.2287 -0.6401 -7.8484 0.0000 0.0000 0.0000 -77.0982 -11.0330 39.5333 19.4624 -29.9892 -5.2600 -0.0000 0.0000 -2.3754 29.4363 -15.6469 -8.6539 -7.1250 0.0000 -0.0000 1.1735 12.1544 -0.9003 0.0000 0.0000 0.0000 88.3658 10.7678 27.2056 -21.7750 32.7219 -6.4638 0.0000 -0.0000 -2.7060 -19.5805 -47.0505 14.5933 7.1250 -0.0000 -0.0000 40.1160 -75.8173 -30.0447
